<svg xmlns="http://www.w3.org/2000/svg" width="20" height="20" viewBox="0 0 20 20" fill="none">
  <path d="M13.1141 9.7245L12.9648 9.77377L13.1152 9.8198C13.7997 10.0293 14.3596 10.4331 14.7959 11.0327L14.7963 11.0332C15.2324 11.6175 15.45 12.2683 15.45 12.987C15.45 14.2663 15.0127 15.2464 14.1417 15.9347C13.2843 16.6095 12.0957 16.95 10.57 16.95H6.86667C6.53914 16.95 6.29651 16.95 6.10447 16.9343C5.91302 16.9186 5.77627 16.8877 5.65971 16.8283C5.4496 16.7212 5.27877 16.5504 5.17171 16.3403C5.11232 16.2237 5.08137 16.087 5.06573 15.8955C5.05004 15.7035 5.05 15.4609 5.05 15.1333V4.86667C5.05 4.53914 5.05004 4.29651 5.06573 4.10447C5.08137 3.91302 5.11232 3.77627 5.17171 3.65971C5.27877 3.4496 5.4496 3.27877 5.65971 3.17171C5.77627 3.11232 5.91302 3.08137 6.10447 3.06573C6.29651 3.05004 6.53914 3.05 6.86667 3.05H10.0959C11.6381 3.05 12.8349 3.37554 13.6923 4.02042C14.547 4.66326 14.976 5.58988 14.976 6.80782C14.976 7.52878 14.7965 8.14947 14.4395 8.67212L14.439 8.67298C14.0969 9.19644 13.6554 9.54597 13.1141 9.7245ZM7.34391 8.88274V8.93274H7.39391H10.0722C10.9382 8.93274 11.5968 8.77058 12.0399 8.43821C12.4856 8.1038 12.7058 7.60286 12.7058 6.94463C12.7058 6.30114 12.4853 5.81153 12.0394 5.48491C11.5964 5.16041 10.938 5.00212 10.0722 5.00212H7.39391H7.34391V5.05212V8.88274ZM7.39391 10.7936H7.34391V10.8436V14.9479V14.9979H7.39391H10.5226C11.3509 14.9979 11.996 14.8141 12.4505 14.4392C12.9059 14.0638 13.1324 13.5472 13.1324 12.8958C13.1324 12.2443 12.9059 11.7278 12.4505 11.3523C11.996 10.9775 11.3509 10.7936 10.5226 10.7936H7.39391Z" fill="currentColor" stroke="currentColor" stroke-width="0.1"/>
</svg>