<svg xmlns="http://www.w3.org/2000/svg" width="20" height="20" viewBox="0 0 20 20" fill="none">
  <path d="M10.1117 10.8664V10.7498H9.995H5.33833H5.22166V10.8664V15.8333C5.22166 16.4129 4.74939 16.8833 4.16916 16.8833C3.58894 16.8833 3.11667 16.4129 3.11667 15.8333V4.16667C3.11667 3.58709 3.58894 3.11667 4.16916 3.11667C4.74939 3.11667 5.22166 3.58709 5.22166 4.16667V8.76873V8.8854H5.33833H9.995H10.1117V8.76873V4.16667C10.1117 3.58709 10.5839 3.11667 11.1642 3.11667C11.7444 3.11667 12.2167 3.58709 12.2167 4.16667V15.8333C12.2167 16.4129 11.7444 16.8833 11.1642 16.8833C10.5839 16.8833 10.1117 16.4129 10.1117 15.8333V10.8664Z" fill="currentColor" stroke="currentColor" stroke-width="0.233333"/>
  <path d="M17.0583 9.25391C17.0583 8.82834 16.7133 8.48335 16.2878 8.48335C16.1743 8.48335 16.0623 8.5084 15.9597 8.5567L13.8376 9.5553C13.5959 9.66904 13.4417 9.91214 13.4417 10.1793C13.4417 10.6851 13.9682 11.0188 14.4256 10.8029L15.4988 10.2963V15.9869C15.4988 16.4176 15.8479 16.7667 16.2786 16.7667C16.7092 16.7667 17.0583 16.4176 17.0583 15.9869V9.25391Z" fill="currentColor" stroke="currentColor" stroke-width="0.116667"/>
</svg>