<svg xmlns="http://www.w3.org/2000/svg" width="20" height="20" viewBox="0 0 20 20" fill="none">
  <path d="M12.3172 15.3356C12.8905 15.3356 13.2441 15.3946 13.3781 15.5126C13.5196 15.6228 13.5605 15.8353 13.501 16.1501C13.4339 16.4727 13.3074 16.697 13.1213 16.8229C12.9426 16.941 12.5666 17 11.9934 17H5.21481H4.68995C4.42193 17 4.22836 16.9292 4.10925 16.7875C3.99757 16.6459 3.97152 16.4334 4.03107 16.1501C4.09063 15.8353 4.21347 15.6228 4.3996 15.5126C4.58572 15.3946 4.96541 15.3356 5.53866 15.3356H8.06247L10.2066 4.69983H7.68278C7.12442 4.69983 6.77079 4.64081 6.62189 4.52277C6.48044 4.39685 6.43949 4.17257 6.49905 3.84992C6.55861 3.55874 6.674 3.34626 6.84524 3.21248C7.01647 3.07083 7.24354 3 7.52644 3H8.02897H14.8075H15.3324C15.6004 3 15.7865 3.07083 15.8908 3.21248C16.0024 3.35413 16.0285 3.56661 15.9689 3.84992C15.9094 4.17257 15.7828 4.39685 15.5892 4.52277C15.3957 4.64081 15.0197 4.69983 14.4613 4.69983H11.9375L9.79341 15.3356H12.3172Z" fill="currentColor"/>
</svg>